<svg width="24" height="18" viewBox="0 0 24 18" fill="none" xmlns="http://www.w3.org/2000/svg">
<path d="M7.2105 4.5015C6.0315 6.447 4.8045 8.4 3.75 10.3755V11.832H8.1075V13.5H9.7755V11.832H10.875V10.395H9.7755V4.5015H7.2105ZM5.3655 10.3965V10.3485C6.19233 8.81565 7.07594 7.31411 8.0145 5.847H8.1075V10.395H5.3655V10.3965ZM20.112 4.5015H18.153L14.7525 8.5305H14.667V4.5H12.885V13.5H14.6655V10.6125L15.588 9.564L18.108 13.5H20.25L16.902 8.3775L20.112 4.5015Z" fill="black"/>
<path d="M21 1.5C21.3978 1.5 21.7794 1.65804 22.0607 1.93934C22.342 2.22064 22.5 2.60218 22.5 3V15C22.5 15.3978 22.342 15.7794 22.0607 16.0607C21.7794 16.342 21.3978 16.5 21 16.5H3C2.60218 16.5 2.22064 16.342 1.93934 16.0607C1.65804 15.7794 1.5 15.3978 1.5 15V3C1.5 2.60218 1.65804 2.22064 1.93934 1.93934C2.22064 1.65804 2.60218 1.5 3 1.5H21ZM3 0C2.20435 0 1.44129 0.31607 0.87868 0.87868C0.316071 1.44129 0 2.20435 0 3L0 15C0 15.7956 0.316071 16.5587 0.87868 17.1213C1.44129 17.6839 2.20435 18 3 18H21C21.7956 18 22.5587 17.6839 23.1213 17.1213C23.6839 16.5587 24 15.7956 24 15V3C24 2.20435 23.6839 1.44129 23.1213 0.87868C22.5587 0.31607 21.7956 0 21 0H3Z" fill="black"/>
</svg>
