<svg width="18" height="11" viewBox="0 0 18 11" fill="none" xmlns="http://www.w3.org/2000/svg">
<path fill-rule="evenodd" clip-rule="evenodd" d="M5.5 11C8.53757 11 11 8.53757 11 5.5C11 2.46243 8.53757 0 5.5 0C2.46243 0 0 2.46243 0 5.5C0 8.53757 2.46243 11 5.5 11Z" fill="#D8232A"/>
<path fill-rule="evenodd" clip-rule="evenodd" d="M9 9.74284C9.95094 10.5282 11.1704 11 12.5 11C15.5376 11 18 8.53757 18 5.5C18 2.46243 15.5376 0 12.5 0C11.1704 0 9.95094 0.471818 9 1.25716C10.2215 2.26595 11 3.79206 11 5.5C11 7.20794 10.2215 8.73405 9 9.74284Z" fill="#ED9F2D"/>
<path fill-rule="evenodd" clip-rule="evenodd" d="M9 1.25714C7.7785 2.26593 7 3.79204 7 5.49998C7 7.20792 7.7785 8.73402 9 9.74282C10.2215 8.73402 11 7.20792 11 5.49998C11 3.79204 10.2215 2.26593 9 1.25714Z" fill="#D8232A"/>
<mask id="mask0_418_5204" style="mask-type:alpha" maskUnits="userSpaceOnUse" x="7" y="1" width="4" height="9">
<path fill-rule="evenodd" clip-rule="evenodd" d="M9 1.25714C7.7785 2.26593 7 3.79204 7 5.49998C7 7.20792 7.7785 8.73402 9 9.74282C10.2215 8.73402 11 7.20792 11 5.49998C11 3.79204 10.2215 2.26593 9 1.25714Z" fill="white"/>
</mask>
<g mask="url(#mask0_418_5204)">
<path fill-rule="evenodd" clip-rule="evenodd" d="M6 2H12V3H6V2ZM6 4H12V5H6V4ZM12 6H6V7H12V6ZM6 8H12V9H6V8ZM12 10H6V11H12V10Z" fill="#ED9F2D"/>
</g>
</svg>
