<svg width="32" height="12" viewBox="0 0 32 12" fill="none" xmlns="http://www.w3.org/2000/svg">
<path d="M7.00002 7.25002H9.37502L9.36113 3.56946L7.00002 7.25002ZM21.25 5.87502C21.25 5.06946 21.0162 4.42132 20.5486 3.93058C20.081 3.43984 19.4028 3.19446 18.5139 3.19446H17.7639V8.58335H18.4861C19.3287 8.58335 20 8.31946 20.5 7.79169C21 7.26391 21.25 6.62502 21.25 5.87502ZM13.2778 0.638909L13.2917 11.1389C13.2917 11.2685 13.2477 11.3796 13.1597 11.4722C13.0718 11.5648 12.963 11.6111 12.8334 11.6111H9.83335C9.70372 11.6111 9.59493 11.5648 9.50696 11.4722C9.419 11.3796 9.37502 11.2685 9.37502 11.1389V10.2778H5.33335L4.56946 11.4028C4.47687 11.5417 4.34724 11.6111 4.18057 11.6111H0.472241C0.277797 11.6111 0.136593 11.5278 0.0486298 11.3611C-0.0393332 11.1945 -0.0231295 11.0324 0.0972409 10.875L7.81946 0.361131C7.9028 0.231502 8.0278 0.166687 8.19446 0.166687H12.8056C12.9352 0.166687 13.0463 0.212983 13.1389 0.305576C13.2315 0.398168 13.2778 0.50928 13.2778 0.638909ZM24.7639 5.87502C24.7639 7.66206 24.1829 9.06483 23.0209 10.0834C21.8588 11.1019 20.3565 11.6111 18.5139 11.6111H14.7639C14.6343 11.6111 14.5232 11.5648 14.4306 11.4722C14.338 11.3796 14.2917 11.2685 14.2917 11.1389V0.638909C14.2917 0.50928 14.338 0.398168 14.4306 0.305576C14.5232 0.212983 14.6343 0.166687 14.7639 0.166687H18.4861C20.338 0.166687 21.8472 0.671317 23.0139 1.68058C24.1806 2.68984 24.7639 4.08798 24.7639 5.87502ZM26.9306 5.88891C26.9306 5.99076 26.9283 6.12502 26.9236 6.29169C26.919 6.45835 26.882 6.78937 26.8125 7.28474C26.7431 7.78011 26.6435 8.25233 26.5139 8.70141C26.3843 9.15048 26.1783 9.65048 25.8959 10.2014C25.6134 10.7523 25.2732 11.2269 24.875 11.625H24.1667C24.5185 11.2084 24.8264 10.7246 25.0903 10.1736C25.3542 9.6227 25.5463 9.10419 25.6667 8.61808C25.7871 8.13196 25.8843 7.67826 25.9584 7.25696C26.0324 6.83567 26.0741 6.50002 26.0834 6.25002L26.0972 5.87502C26.0972 5.80095 26.0949 5.69678 26.0903 5.56252C26.0857 5.42826 26.0509 5.15048 25.9861 4.72919C25.9213 4.30789 25.8287 3.88428 25.7084 3.45835C25.588 3.03243 25.3982 2.51622 25.1389 1.90974C24.8797 1.30326 24.5741 0.726872 24.2222 0.180576H24.8195C25.1991 0.615761 25.5324 1.11113 25.8195 1.66669C26.1065 2.22224 26.3172 2.73845 26.4514 3.2153C26.5857 3.69215 26.6922 4.13659 26.7709 4.54863C26.8496 4.96067 26.8982 5.28706 26.9167 5.5278L26.9306 5.88891ZM29.4861 5.88891C29.4861 5.99076 29.4838 6.12502 29.4792 6.29169C29.4746 6.45835 29.4375 6.78937 29.3681 7.28474C29.2986 7.78011 29.1991 8.25233 29.0695 8.70141C28.9398 9.15048 28.7315 9.65048 28.4445 10.2014C28.1574 10.7523 27.8148 11.2269 27.4167 11.625H26.7084C27.0602 11.2084 27.3681 10.7246 27.632 10.1736C27.8959 9.6227 28.088 9.10419 28.2084 8.61808C28.3287 8.13196 28.4259 7.67826 28.5 7.25696C28.5741 6.83567 28.6158 6.50002 28.625 6.25002L28.6389 5.87502C28.6389 5.80095 28.6366 5.69678 28.632 5.56252C28.6273 5.42826 28.5926 5.15048 28.5278 4.72919C28.463 4.30789 28.3727 3.88428 28.257 3.45835C28.1412 3.03243 27.9537 2.51622 27.6945 1.90974C27.4352 1.30326 27.1297 0.726872 26.7778 0.180576H27.375C27.7547 0.615761 28.088 1.11113 28.375 1.66669C28.6621 2.22224 28.8727 2.73845 29.007 3.2153C29.1412 3.69215 29.2477 4.13659 29.3264 4.54863C29.4051 4.96067 29.4537 5.28706 29.4722 5.5278L29.4861 5.88891ZM32 5.88891C32 5.99076 31.9977 6.12502 31.9931 6.29169C31.9884 6.45835 31.9514 6.78937 31.882 7.28474C31.8125 7.78011 31.713 8.25233 31.5834 8.70141C31.4537 9.15048 31.2477 9.65048 30.9653 10.2014C30.6829 10.7523 30.3426 11.2269 29.9445 11.625H29.2361C29.588 11.2084 29.8935 10.7246 30.1528 10.1736C30.4121 9.6227 30.6019 9.10419 30.7222 8.61808C30.8426 8.13196 30.9398 7.67826 31.0139 7.25696C31.088 6.83567 31.1297 6.50002 31.1389 6.25002L31.1528 5.87502C31.1528 5.80095 31.1505 5.69678 31.1459 5.56252C31.1412 5.42826 31.1065 5.15048 31.0417 4.72919C30.9769 4.30789 30.8866 3.88428 30.7709 3.45835C30.6551 3.03243 30.4676 2.51622 30.2084 1.90974C29.9491 1.30326 29.6435 0.726872 29.2917 0.180576H29.8889C30.2685 0.615761 30.6019 1.11113 30.8889 1.66669C31.1759 2.22224 31.3866 2.73845 31.5209 3.2153C31.6551 3.69215 31.7616 4.13659 31.8403 4.54863C31.919 4.96067 31.963 5.28706 31.9722 5.5278L32 5.88891Z" fill="black"/>
</svg>
