<svg width="20" height="20" viewBox="0 0 20 20" fill="none" xmlns="http://www.w3.org/2000/svg">
<path d="M14.999 2L11.239 1.06C11.0804 1.02025 10.9175 1.0001 10.754 1H6.73602C6.36452 1.00001 6.00037 1.10349 5.68439 1.29884C5.36841 1.49419 5.11307 1.77369 4.94702 2.106L1.44702 9.106C1.29465 9.41092 1.22274 9.74972 1.23812 10.0902C1.2535 10.4308 1.35566 10.7617 1.53489 11.0516C1.71412 11.3416 1.96449 11.5809 2.26221 11.7469C2.55994 11.9129 2.89515 12 3.23602 12H8.00002H10M14.999 2L15 11L11.608 16.088C11.211 16.683 11 17.381 11 18.096C11 18.595 10.595 19 10.095 19H9.99902C9.46858 19 8.95988 18.7893 8.5848 18.4142C8.20973 18.0391 7.99902 17.5304 7.99902 17V12M14.999 2H17C17.5304 2 18.0392 2.21071 18.4142 2.58579C18.7893 2.96086 19 3.46957 19 4V10C19 10.5304 18.7893 11.0391 18.4142 11.4142C18.0392 11.7893 17.5304 12 17 12H14.5" stroke="#333333" stroke-width="2" stroke-linecap="round" stroke-linejoin="round"/>
</svg>
