<svg width="10" height="16" viewBox="0 0 10 16" fill="none" xmlns="http://www.w3.org/2000/svg">
<path d="M9.16667 1.41668C9.16667 1.30617 9.12277 1.20019 9.04463 1.12205C8.96649 1.04391 8.86051 1.00001 8.75 1.00001H6.66667C5.6176 0.947756 4.5905 1.31284 3.80977 2.0155C3.02904 2.71815 2.55815 3.70126 2.5 4.75001V7.00001H0.416667C0.30616 7.00001 0.200179 7.04391 0.122039 7.12205C0.0438988 7.20019 0 7.30617 0 7.41668V9.58335C0 9.69385 0.0438988 9.79984 0.122039 9.87798C0.200179 9.95612 0.30616 10 0.416667 10H2.5V15.5833C2.5 15.6939 2.5439 15.7998 2.62204 15.878C2.70018 15.9561 2.80616 16 2.91667 16H5.41667C5.52717 16 5.63315 15.9561 5.7113 15.878C5.78944 15.7998 5.83333 15.6939 5.83333 15.5833V10H8.01667C8.10933 10.0013 8.19978 9.97175 8.27374 9.91591C8.34769 9.86007 8.40092 9.78117 8.425 9.69168L9.025 7.52501C9.04158 7.46345 9.04381 7.3989 9.03151 7.33634C9.01922 7.27378 8.99273 7.21487 8.95409 7.16416C8.91545 7.11344 8.86569 7.07227 8.80864 7.04381C8.75158 7.01536 8.68876 7.00037 8.625 7.00001H5.83333V4.75001C5.85406 4.54374 5.95093 4.35261 6.10502 4.21393C6.25911 4.07524 6.45936 3.99898 6.66667 4.00001H8.75C8.86051 4.00001 8.96649 3.95612 9.04463 3.87798C9.12277 3.79983 9.16667 3.69385 9.16667 3.58335V1.41668Z" fill="#F9F9F9"/>
</svg>
