<svg width="20" height="18" viewBox="0 0 20 18" fill="none" xmlns="http://www.w3.org/2000/svg">
<path d="M1.34255 3.77789C1.5687 3.23192 1.90017 2.73584 2.31804 2.31798C2.7359 1.90011 3.23198 1.56864 3.77795 1.34249C4.32392 1.11634 4.90909 0.999939 5.50004 0.999939C6.09099 0.999939 6.67616 1.11634 7.22213 1.34249C7.7681 1.56864 8.26417 1.90011 8.68204 2.31798L10 3.63598L11.318 2.31798C12.162 1.47406 13.3066 0.99995 14.5 0.99995C15.6935 0.99995 16.8381 1.47406 17.682 2.31798C18.526 3.1619 19.0001 4.3065 19.0001 5.49998C19.0001 6.69346 18.526 7.83806 17.682 8.68198L10 16.364L2.31804 8.68198C1.90017 8.26411 1.5687 7.76803 1.34255 7.22207C1.1164 6.6761 1 6.09093 1 5.49998C1 4.90902 1.1164 4.32386 1.34255 3.77789Z" stroke="#333333" stroke-width="2" stroke-linecap="round" stroke-linejoin="round"/>
</svg>
