<svg width="16" height="17" viewBox="0 0 16 17" fill="none" xmlns="http://www.w3.org/2000/svg">
<path d="M15.4559 5.42083C15.4475 4.78968 15.3293 4.16481 15.1067 3.57416C14.9137 3.07595 14.6188 2.62349 14.241 2.24569C13.8632 1.86788 13.4108 1.57304 12.9126 1.37999C12.3295 1.16113 11.7135 1.04278 11.0909 1.02999C10.2892 0.994161 10.0351 0.984161 8.00006 0.984161C5.96506 0.984161 5.70423 0.984161 4.90839 1.02999C4.28602 1.04287 3.67035 1.16122 3.08756 1.37999C2.58927 1.5729 2.13674 1.8677 1.75892 2.24552C1.3811 2.62335 1.0863 3.07588 0.893392 3.57416C0.674084 4.15677 0.555995 4.77259 0.544225 5.39499C0.508392 6.19749 0.497559 6.45166 0.497559 8.48666C0.497559 10.5217 0.497559 10.7817 0.544225 11.5783C0.556725 12.2017 0.674225 12.8167 0.893392 13.4008C1.08662 13.899 1.38164 14.3513 1.75959 14.729C2.13754 15.1066 2.59011 15.4013 3.08839 15.5942C3.66959 15.8218 4.28537 15.9486 4.90923 15.9692C5.71173 16.005 5.96589 16.0158 8.00089 16.0158C10.0359 16.0158 10.2967 16.0158 11.0926 15.9692C11.7152 15.9569 12.3312 15.8388 12.9142 15.62C13.4123 15.4267 13.8646 15.1318 14.2424 14.754C14.6202 14.3763 14.9151 13.9239 15.1084 13.4258C15.3276 12.8425 15.4451 12.2275 15.4576 11.6033C15.4934 10.8017 15.5042 10.5475 15.5042 8.51166C15.5026 6.47666 15.5026 6.21833 15.4559 5.42083ZM7.99506 12.335C5.86673 12.335 4.14256 10.6108 4.14256 8.48249C4.14256 6.35416 5.86673 4.62999 7.99506 4.62999C9.01681 4.62999 9.9967 5.03588 10.7192 5.75837C11.4417 6.48085 11.8476 7.46075 11.8476 8.48249C11.8476 9.50424 11.4417 10.4841 10.7192 11.2066C9.9967 11.9291 9.01681 12.335 7.99506 12.335ZM12.0009 5.38583C11.8829 5.38594 11.766 5.36278 11.657 5.31767C11.5479 5.27256 11.4489 5.2064 11.3654 5.12296C11.282 5.03952 11.2158 4.94044 11.1707 4.8314C11.1256 4.72236 11.1024 4.6055 11.1026 4.48749C11.1026 4.36958 11.1258 4.25282 11.1709 4.14388C11.216 4.03494 11.2822 3.93595 11.3656 3.85257C11.4489 3.76919 11.5479 3.70305 11.6569 3.65793C11.7658 3.6128 11.8826 3.58958 12.0005 3.58958C12.1184 3.58958 12.2352 3.6128 12.3441 3.65793C12.453 3.70305 12.552 3.76919 12.6354 3.85257C12.7188 3.93595 12.7849 4.03494 12.83 4.14388C12.8752 4.25282 12.8984 4.36958 12.8984 4.48749C12.8984 4.98416 12.4967 5.38583 12.0009 5.38583Z" fill="#F9F9F9"/>
</svg>
