<svg width="20" height="20" viewBox="0 0 20 20" fill="none" xmlns="http://www.w3.org/2000/svg">
<path d="M6.68396 11.342C6.88596 10.938 6.99996 10.482 6.99996 9.99999C6.99996 9.51799 6.88596 9.06199 6.68396 8.65799M6.68396 11.342C6.38166 11.9464 5.88416 12.431 5.27205 12.7174C4.65994 13.0037 3.96909 13.075 3.3114 12.9197C2.65371 12.7644 2.06773 12.3916 1.64837 11.8617C1.22901 11.3317 1.00085 10.6758 1.00085 9.99999C1.00085 9.32422 1.22901 8.66824 1.64837 8.13832C2.06773 7.60841 2.65371 7.2356 3.3114 7.08029C3.96909 6.92499 4.65994 6.99628 5.27205 7.28263C5.88416 7.56898 6.38166 8.0536 6.68396 8.65799M6.68396 11.342L13.316 14.658M6.68396 8.65799L13.316 5.34199M13.316 14.658C12.96 15.3698 12.9015 16.1939 13.1531 16.9489C13.4048 17.704 13.9461 18.3281 14.658 18.684C15.3698 19.0399 16.1939 19.0985 16.9489 18.8468C17.7039 18.5951 18.328 18.0538 18.684 17.342C19.0399 16.6302 19.0984 15.8061 18.8468 15.0511C18.5951 14.296 18.0538 13.6719 17.342 13.316C16.9895 13.1398 16.6058 13.0347 16.2127 13.0067C15.8196 12.9788 15.4249 13.0286 15.051 13.1532C14.296 13.4049 13.6719 13.9462 13.316 14.658ZM13.316 5.34199C13.4922 5.69439 13.7361 6.00863 14.0338 6.26677C14.3315 6.5249 14.6771 6.72188 15.0509 6.84645C15.4247 6.97102 15.8194 7.02074 16.2124 6.99278C16.6054 6.96482 16.9891 6.85973 17.3415 6.68349C17.6939 6.50726 18.0081 6.26334 18.2662 5.96566C18.5244 5.66798 18.7213 5.32238 18.8459 4.94858C18.9705 4.57477 19.0202 4.1801 18.9922 3.78708C18.9643 3.39406 18.8592 3.01039 18.683 2.65799C18.327 1.94628 17.703 1.40511 16.948 1.15353C16.1931 0.901954 15.3692 0.960572 14.6575 1.31649C13.9457 1.67241 13.4046 2.29648 13.153 3.05141C12.9014 3.80634 12.96 4.63028 13.316 5.34199Z" stroke="#333333" stroke-width="2" stroke-linecap="round" stroke-linejoin="round"/>
</svg>
