<svg width="16" height="13" viewBox="0 0 16 13" fill="none" xmlns="http://www.w3.org/2000/svg">
<path d="M15.6999 1.724C15.1233 1.97946 14.5116 2.14705 13.8853 2.2212C14.545 1.82648 15.0387 1.20536 15.2743 0.473603C14.6542 0.841713 13.9757 1.10093 13.2681 1.24C12.9725 0.924688 12.6153 0.673444 12.2186 0.501842C11.8219 0.33024 11.3941 0.241936 10.9619 0.242403C9.21712 0.242403 7.80232 1.6568 7.80232 3.402C7.80232 3.6494 7.83032 3.8908 7.88432 4.1222C5.25832 3.9904 2.93032 2.7324 1.37192 0.820603C1.09093 1.30282 0.943282 1.8511 0.944116 2.4092C0.943702 2.9294 1.07179 3.44165 1.31701 3.90044C1.56222 4.35922 1.91696 4.75032 2.34972 5.039C1.84806 5.02307 1.35745 4.88758 0.918716 4.6438C0.918316 4.657 0.918316 4.67 0.918316 4.6836C0.918316 6.214 2.00732 7.491 3.45252 7.7816C2.98717 7.90758 2.49926 7.92604 2.02572 7.8356C2.42772 9.0906 3.59452 10.0044 4.97712 10.03C3.8579 10.9083 2.47582 11.3847 1.05312 11.3826C0.798116 11.3826 0.546716 11.3678 0.299316 11.3384C1.74398 12.2666 3.42535 12.7593 5.14252 12.7576C10.9541 12.7576 14.1321 7.9434 14.1321 3.7686C14.1321 3.6318 14.1289 3.4952 14.1229 3.3594C14.7418 2.91258 15.2759 2.35874 15.6999 1.724Z" fill="#F9F9F9"/>
</svg>
