<svg width="20" height="7" viewBox="0 0 20 7" fill="none" xmlns="http://www.w3.org/2000/svg">
<path fill-rule="evenodd" clip-rule="evenodd" d="M14.1405 0.284619C13.8291 0.148519 13.3394 0 12.7294 0C11.1725 0 10.0766 0.920354 10.0675 2.23809C10.0576 3.21273 10.8495 3.75643 11.4466 4.0804C12.0602 4.41249 12.2664 4.62501 12.2639 4.92194C12.2597 5.37611 11.7741 5.58422 11.3214 5.58422C10.6909 5.58422 10.356 5.48177 9.83808 5.22859L9.63552 5.12063L9.4153 6.63857C9.7825 6.82745 10.4632 6.99139 11.1697 7C12.8243 7 13.8995 6.09086 13.9121 4.68369C13.9177 3.91075 13.4981 3.32479 12.5893 2.84108C12.039 2.52672 11.7013 2.31841 11.7052 2.00014C11.7055 1.71823 11.9905 1.41658 12.6073 1.41658C13.1224 1.40737 13.4952 1.53927 13.7858 1.67707L13.9272 1.75468L14.1405 0.284619ZM6.85363 6.89945L7.83877 0.118174H9.4135L8.42844 6.89945H6.85363ZM16.8646 2.59983C16.8646 2.59983 16.3678 4.10544 16.2373 4.49521H17.5446C17.4824 4.15622 17.1802 2.53763 17.1802 2.53763L17.0739 1.95277C17.0319 2.08717 16.9732 2.26533 16.9286 2.40077C16.8889 2.52147 16.8603 2.60823 16.8646 2.59983ZM18.1801 0.125084H16.9631C16.5856 0.125084 16.3031 0.24506 16.1377 0.687211L13.7991 6.90186H15.4531C15.4531 6.90186 15.7229 6.06583 15.7842 5.88236C15.869 5.88236 16.2689 5.88313 16.6929 5.88395C17.171 5.88488 17.6796 5.88586 17.8011 5.88586C17.8483 6.12251 17.9929 6.90186 17.9929 6.90186H19.4545L18.1801 0.125084ZM5.53253 0.123882L3.99122 4.74708L3.82612 3.8073L3.27428 0.691418C3.17908 0.261685 2.9024 0.134298 2.56042 0.119276H0.0209855L0 0.259782C0.61781 0.435404 1.17026 0.688655 1.65441 1.00364L3.05479 6.89354L4.72139 6.89244L7.20128 0.123882H5.53253Z" fill="#0071CE"/>
</svg>
