<svg width="24" height="18" viewBox="0 0 24 18" fill="none" xmlns="http://www.w3.org/2000/svg">
<path d="M6.762 13.5H8.9055L11.8905 4.50151H9.915L7.9155 11.562H7.83L5.8125 4.50151H3.75L6.762 13.5ZM20.25 9.58501V8.43C20.25 5.886 18.807 4.33051 16.401 4.33051C13.995 4.33051 12.5445 5.874 12.5445 8.4315V9.58501C12.5445 12.1215 13.995 13.671 16.3995 13.671C18.807 13.671 20.25 12.1215 20.25 9.58501ZM18.444 8.418V9.591C18.444 11.325 17.5875 12.189 16.401 12.189C15.207 12.189 14.3565 11.325 14.3565 9.591V8.418C14.3565 6.68401 15.207 5.81401 16.401 5.81401C17.586 5.81401 18.444 6.68401 18.444 8.418Z" fill="black"/>
<path d="M21 1.5C21.3978 1.5 21.7794 1.65804 22.0607 1.93934C22.342 2.22064 22.5 2.60218 22.5 3V15C22.5 15.3978 22.342 15.7794 22.0607 16.0607C21.7794 16.342 21.3978 16.5 21 16.5H3C2.60218 16.5 2.22064 16.342 1.93934 16.0607C1.65804 15.7794 1.5 15.3978 1.5 15V3C1.5 2.60218 1.65804 2.22064 1.93934 1.93934C2.22064 1.65804 2.60218 1.5 3 1.5H21ZM3 0C2.20435 0 1.44129 0.31607 0.87868 0.87868C0.316071 1.44129 0 2.20435 0 3L0 15C0 15.7956 0.316071 16.5587 0.87868 17.1213C1.44129 17.6839 2.20435 18 3 18H21C21.7956 18 22.5587 17.6839 23.1213 17.1213C23.6839 16.5587 24 15.7956 24 15V3C24 2.20435 23.6839 1.44129 23.1213 0.87868C22.5587 0.31607 21.7956 0 21 0H3Z" fill="black"/>
</svg>
