<svg width="22" height="22" viewBox="0 0 22 22" fill="none" xmlns="http://www.w3.org/2000/svg">
<path d="M8.24996 5.49998C9.26248 5.49998 10.0833 4.67917 10.0833 3.66665C10.0833 2.65412 9.26248 1.83331 8.24996 1.83331C7.23744 1.83331 6.41663 2.65412 6.41663 3.66665C6.41663 4.67917 7.23744 5.49998 8.24996 5.49998Z" fill="black"/>
<path d="M15.565 13.5704C15.5235 13.3626 15.4113 13.1757 15.2475 13.0413C15.0837 12.907 14.8785 12.8335 14.6667 12.8334H10.8781L10.4848 10.0834H14.6667V8.25002H10.2236L10.0742 7.20319C10.0428 6.98484 9.93383 6.78511 9.76713 6.64064C9.60044 6.49617 9.38724 6.41666 9.16666 6.41669H8.24999C8.11874 6.41712 7.98911 6.44565 7.86981 6.50036C7.7505 6.55506 7.64429 6.63468 7.55832 6.73385C7.47235 6.83302 7.40861 6.94945 7.37138 7.07531C7.33415 7.20117 7.3243 7.33354 7.34249 7.46352L8.14641 13.0937C8.21068 13.5297 8.42916 13.9282 8.76219 14.2168C9.09522 14.5054 9.52071 14.665 9.96141 14.6667H13.915L14.6841 18.513C14.7702 18.9411 15.1461 19.25 15.5833 19.25H18.3333V17.4167H16.3341L15.565 13.5704Z" fill="black"/>
<path d="M11.4675 16.0417C10.7901 17.3947 9.40504 18.3333 7.79171 18.3333C6.69806 18.3321 5.64956 17.8972 4.87623 17.1238C4.10291 16.3505 3.66792 15.302 3.66671 14.2083C3.66825 13.387 3.91479 12.5848 4.3748 11.9043C4.8348 11.2239 5.48735 10.6961 6.24896 10.3886L5.98404 8.53235C3.57962 9.2996 1.83337 11.5537 1.83337 14.2083C1.83337 17.4937 4.50637 20.1667 7.79171 20.1667C8.81361 20.1653 9.81795 19.9009 10.7081 19.3991C11.5983 18.8972 12.3444 18.1748 12.8746 17.3012L12.6235 16.0417H11.4675Z" fill="black"/>
</svg>
