<svg width="16" height="12" viewBox="0 0 16 12" fill="none" xmlns="http://www.w3.org/2000/svg">
<path d="M8.051 0.498993H8.14C8.962 0.501993 13.127 0.531993 14.25 0.833993C14.5895 0.926162 14.8989 1.10582 15.1472 1.355C15.3955 1.60419 15.574 1.91418 15.665 2.25399C15.766 2.63399 15.837 3.13699 15.885 3.65599L15.895 3.75999L15.917 4.01999L15.925 4.12399C15.99 5.03799 15.998 5.89399 15.999 6.08099V6.15599C15.998 6.34999 15.989 7.26399 15.917 8.21599L15.909 8.32099L15.9 8.42499C15.85 8.99699 15.776 9.56499 15.665 9.98299C15.5743 10.3229 15.3958 10.6331 15.1475 10.8823C14.8991 11.1315 14.5896 11.3111 14.25 11.403C13.09 11.715 8.681 11.737 8.07 11.738H7.928C7.619 11.738 6.341 11.732 5.001 11.686L4.831 11.68L4.744 11.676L4.573 11.669L4.402 11.662C3.292 11.613 2.235 11.534 1.748 11.402C1.40849 11.3102 1.09907 11.1308 0.850724 10.8817C0.602384 10.6327 0.423847 10.3228 0.333 9.98299C0.222 9.56599 0.148 8.99699 0.098 8.42499L0.09 8.31999L0.082 8.21599C0.0326476 7.53839 0.00529987 6.85937 0 6.17999L0 6.05699C0.002 5.84199 0.01 5.09899 0.064 4.27899L0.071 4.17599L0.074 4.12399L0.082 4.01999L0.104 3.75999L0.114 3.65599C0.162 3.13699 0.233 2.63299 0.334 2.25399C0.424694 1.91404 0.603162 1.6039 0.851513 1.35468C1.09986 1.10545 1.40937 0.925885 1.749 0.833993C2.236 0.703993 3.293 0.623993 4.403 0.573993L4.573 0.566993L4.745 0.560993L4.831 0.557993L5.002 0.550993C5.95371 0.520368 6.90581 0.503366 7.858 0.499993H8.051V0.498993Z" fill="#F9F9F9"/>
</svg>
