<svg id="Calque_1" data-name="Calque 1" xmlns="http://www.w3.org/2000/svg" viewBox="0 0 250 100"><defs><style>.cls-1,.cls-2{fill:#1d1d1b;}.cls-2{stroke:#1d1d1b;stroke-miterlimit:10;stroke-width:0.63px;}.cls-3{fill:#fff;}.cls-4{fill:#e52140;}</style></defs><path class="cls-1" d="M18.43,79.48V29.25l6.85-1.14V78.62Z"/><path class="cls-1" d="M31.62,46.05q1.15-1.78,2.61-4.11a7.75,7.75,0,0,0,1.47-3.4,3.18,3.18,0,0,0-.57-2,9.82,9.82,0,0,0-2.93-2l4.28-5.37a20.65,20.65,0,0,1,4.29,3.69,6.82,6.82,0,0,1,1.36,4.4A7.74,7.74,0,0,1,40.81,41q-1.34,2.22-5.47,7.73Z"/><path class="cls-2" d="M79.18,67.7l2.18,5.16a23.77,23.77,0,0,1-7.3,4.93,21.21,21.21,0,0,1-8.36,1.69A19.27,19.27,0,0,1,56,77a17.7,17.7,0,0,1-6.74-6.7,19.07,19.07,0,0,1,.08-18.77,18.2,18.2,0,0,1,6.78-6.74,18.6,18.6,0,0,1,9.44-2.46,17.12,17.12,0,0,1,7.91,1.82,15.76,15.76,0,0,1,5.85,5.12,17.81,17.81,0,0,1,3,7.75L53.43,66.4a12.18,12.18,0,0,0,4.72,5.78,13.68,13.68,0,0,0,7.63,2.13Q73.37,74.31,79.18,67.7ZM58.84,49.33a13.26,13.26,0,0,0-4.72,4.89A13.47,13.47,0,0,0,52.38,61v.32l23.25-7.51a9.28,9.28,0,0,0-3.87-4.6,11.74,11.74,0,0,0-6.3-1.69A12.5,12.5,0,0,0,58.84,49.33Z"/><path class="cls-2" d="M98.39,48.32V68.5a5.79,5.79,0,0,0,1.37,4.12,5,5,0,0,0,3.8,1.45,12.35,12.35,0,0,0,2.74-.32,10.84,10.84,0,0,0,2.42-.81v5.25a10.71,10.71,0,0,1-2.54.81,16.2,16.2,0,0,1-3.19.32,11.37,11.37,0,0,1-5.41-1.25A8.63,8.63,0,0,1,94,74.48a11.71,11.71,0,0,1-1.25-5.57V48.32h0V43.16h0V35.33l5.65-3.39V43.16h10.33v5.16Z"/><path class="cls-3" d="M124.1,77a18.54,18.54,0,0,1,0-32.21,19.83,19.83,0,0,1,19.13,0,18.54,18.54,0,0,1,0,32.21,19.83,19.83,0,0,1-19.13,0Zm16.18-4.52A12.75,12.75,0,0,0,145,67.7a14.15,14.15,0,0,0,0-13.56,12.7,12.7,0,0,0-4.73-4.81,13.51,13.51,0,0,0-13.23,0,12.7,12.7,0,0,0-4.73,4.81,14.15,14.15,0,0,0,0,13.56,12.75,12.75,0,0,0,4.73,4.8,13.51,13.51,0,0,0,13.23,0Z"/><path class="cls-2" d="M162.24,43.72l5.65-1.13V78.67h-5.65Z"/><path class="cls-1" d="M162.24,32.62l5.65-1.13v5.4L162.24,38Z"/><path class="cls-2" d="M180.8,21.12,186.45,20V78.67H180.8Z"/><path class="cls-2" d="M228.51,67.7l2.18,5.16a23.7,23.7,0,0,1-7.31,4.93A21.16,21.16,0,0,1,215,79.48,19.3,19.3,0,0,1,205.3,77a17.77,17.77,0,0,1-6.74-6.7,18.63,18.63,0,0,1,16.31-28,17.15,17.15,0,0,1,7.91,1.82,15.84,15.84,0,0,1,5.85,5.12A17.92,17.92,0,0,1,231.57,57L202.76,66.4a12.12,12.12,0,0,0,4.72,5.78,13.66,13.66,0,0,0,7.63,2.13Q222.7,74.31,228.51,67.7ZM208.17,49.33a13.29,13.29,0,0,0-4.73,4.89A13.57,13.57,0,0,0,201.71,61v.32L225,53.81a9.3,9.3,0,0,0-3.88-4.6,11.73,11.73,0,0,0-6.29-1.69A12.47,12.47,0,0,0,208.17,49.33Z"/><circle class="cls-4" cx="133.6" cy="60.94" r="19.07"/><path class="cls-3" d="M144.76,57.2l-14.68-8.48a4,4,0,0,0-6,3.44v17a4,4,0,0,0,6,3.43l14.68-8.47A4,4,0,0,0,144.76,57.2Z"/><polygon class="cls-1" points="63.82 38.47 57.57 38.47 64 28.11 73.72 28.11 63.82 38.47"/></svg>